# xmcd
#
# Track frame offsets:
#	150
#	13579
#	27984
#	40179
#	54673
#	67118
#	79831
#	93899
#	107394
#	120607
#	134422
#	147717
#	161500
#	173635
#	185809
#	199111
#	212666
#	226521
#	239286
#	252372
#	265412
#	277896
#	291687
#	304590
#	317758
#	331298
#
# Disc length: 4586 seconds
#
# Revision: 1
# Processed by: cddbd v1.5.2PL0 Copyright (c) Steve Scherf et al.
# Submitted via: EasyCDDAExtractor 10.0.3.1
#
DISCID=7c11e81a
DTITLE=Juanita y Maria Mendoza - Las Hermanas Mendoza
DYEAR=1949
DGENRE=Folklore
TTITLE0=Mis Pensamientos
TTITLE1=Sone que me jurabas
TTITLE2=Algun dia
TTITLE3=Vale mas que te alejes
TTITLE4=Los pachucos
TTITLE5=Cada vez que me acuerdo
TTITLE6=Dos seres que se aman
TTITLE7=Por ultima vez
TTITLE8=Las Isabeles
TTITLE9=Delgadina
TTITLE10=Corrido de Arnulfo Gonzales
TTITLE11=Valentin de la Sierra
TTITLE12=Que chula prieta
TTITLE13=No llores pancha
TTITLE14=Linda Morenita
TTITLE15=Los Picones
TTITLE16=El contrabando del paso
TTITLE17=Los versos del casamiento
TTITLE18=La rancherita
TTITLE19=Manuelita
TTITLE20=Yo vivo en la parranda
TTITLE21=Pero lupita
TTITLE22=El resbaloso
TTITLE23=Por ahi se dice
TTITLE24=El desquite
TTITLE25=Tu sentencia
EXTD=
EXTT0=
EXTT1=
EXTT2=
EXTT3=
EXTT4=
EXTT5=
EXTT6=
EXTT7=
EXTT8=
EXTT9=
EXTT10=
EXTT11=
EXTT12=
EXTT13=
EXTT14=
EXTT15=
EXTT16=
EXTT17=
EXTT18=
EXTT19=
EXTT20=
EXTT21=
EXTT22=
EXTT23=
EXTT24=
EXTT25=
PLAYORDER=
